<?xml version="1.0" encoding="utf-8"?>
<!-- Generator: Adobe Illustrator 21.1.0, SVG Export Plug-In . SVG Version: 6.00 Build 0)  -->
<svg version="1.1" id="Layer_1" xmlns="http://www.w3.org/2000/svg" xmlns:xlink="http://www.w3.org/1999/xlink" x="0px" y="0px"
	 viewBox="0 0 324 72" style="enable-background:new 0 0 324 72;" xml:space="preserve">
<style type="text/css">
	.st0{fill:#E4EFE3;}
</style>
<g>
	<path class="st0" d="M6.7,14.6h5.1L19,45V14.7l4.5-0.1v42.3h-5.1l-6.9-29.6v29.6H6.7V14.6z"/>
	<path class="st0" d="M48,49.1c0,5.7-2.8,8.5-8.4,8.5c-5.6,0-8.4-2.8-8.4-8.5V14.6h5v34.5c0,2.4,1.1,3.6,3.4,3.6
		c2.3,0,3.4-1.2,3.4-3.6V14.6h5V49.1z"/>
	<path class="st0" d="M55.9,14.6h15v4.9h-10v13.8h8.6v4.9h-8.6V52h10v4.9h-15V14.6z"/>
	<path class="st0" d="M89.6,56.9h-7.5l-4.4-27.6l-1.9-14.7h5l5,38l5-38h5l-2,14.7L89.6,56.9z"/>
	<path class="st0" d="M118.2,49.1c0,5.7-2.8,8.5-8.4,8.5c-5.6,0-8.4-2.8-8.4-8.5V22.4c0-5.7,2.8-8.5,8.4-8.5c5.6,0,8.4,2.8,8.4,8.5
		V49.1z M113.3,22.4c0-2.4-1.1-3.6-3.4-3.6h0c-2.3,0-3.4,1.2-3.4,3.6v26.7c0,2.4,1.1,3.6,3.4,3.6c2.3,0,3.4-1.2,3.4-3.6V22.4z"/>
	<path class="st0" d="M155.7,49.1c0,5.7-2.8,8.5-8.4,8.5c-5.6,0-8.4-2.8-8.4-8.5V22.4c0-5.7,2.8-8.5,8.4-8.5c5.6,0,8.4,2.8,8.4,8.5
		v5.2h-5v-5.2c0-2.4-1.1-3.6-3.4-3.6h0c-2.3,0-3.4,1.2-3.4,3.6v26.7c0,2.4,1.1,3.6,3.4,3.6c2.3,0,3.4-1.2,3.4-3.6v-5.2h5V49.1z"/>
	<path class="st0" d="M179.4,49.1c0,5.7-2.8,8.5-8.4,8.5c-5.6,0-8.4-2.8-8.4-8.5V22.4c0-5.7,2.8-8.5,8.4-8.5c5.6,0,8.4,2.8,8.4,8.5
		V49.1z M174.4,22.4c0-2.4-1.1-3.6-3.4-3.6h0c-2.3,0-3.4,1.2-3.4,3.6v26.7c0,2.4,1.1,3.6,3.4,3.6c2.3,0,3.4-1.2,3.4-3.6V22.4z"/>
	<path class="st0" d="M200,46.6l7.8-32h5.1v42.3h-4.7V26.9l-6.6,29.9h-3.2l-6.7-29.8v29.8H187V14.6h5.1L200,46.6z"/>
	<path class="st0" d="M221.1,14.6h5v42.3h-5V14.6z"/>
	<path class="st0" d="M234.3,14.6h15v4.9h-10v13.8h8.6v4.9h-8.6V52h10v4.9h-15V14.6z"/>
	<path class="st0" d="M256.2,14.6h5.1l7.2,30.4V14.7l4.5-0.1v42.3h-5.1l-6.9-29.6v29.6h-4.7V14.6z"/>
	<path class="st0" d="M294.2,17.6L285.4,52h9.1v4.9h-14.7v-3l8.7-34.4h-8.4v-4.9h14V17.6z"/>
	<path class="st0" d="M317.8,49.1c0,5.7-2.8,8.5-8.4,8.5c-5.6,0-8.4-2.8-8.4-8.5V22.4c0-5.7,2.8-8.5,8.4-8.5c5.6,0,8.4,2.8,8.4,8.5
		V49.1z M312.8,22.4c0-2.4-1.1-3.6-3.4-3.6h0c-2.3,0-3.4,1.2-3.4,3.6v26.7c0,2.4,1.1,3.6,3.4,3.6c2.3,0,3.4-1.2,3.4-3.6V22.4z"/>
</g>
</svg>
