<?xml version="1.0" encoding="UTF-8" standalone="no"?>
<!-- Created with Inkscape (http://www.inkscape.org/) -->
<svg id="svg2" xmlns:rdf="http://www.w3.org/1999/02/22-rdf-syntax-ns#" xmlns="http://www.w3.org/2000/svg" height="385" width="250" version="1.1" xmlns:cc="http://creativecommons.org/ns#" xmlns:dc="http://purl.org/dc/elements/1.1/">
 <defs id="defs4">
  <linearGradient id="linearGradient4371" x1="727.49" gradientUnits="userSpaceOnUse" y1="886.95" gradientTransform="matrix(0.7071,0.7071,0.7071,-0.7071,-899.868,516.5412)" x2="709.4" y2="898.27">
   <stop id="stop9" stop-color="#D7E69D" offset="0"/>
   <stop id="stop11" stop-color="#94C4AA" offset="0.4456"/>
   <stop id="stop13" stop-color="#01A4B6" offset="1"/>
  </linearGradient>
  <linearGradient id="linearGradient4373" x1="716.98" gradientUnits="userSpaceOnUse" y1="896.62" gradientTransform="matrix(0.7071,0.7071,0.7071,-0.7071,-899.868,516.5412)" x2="740.43" y2="890.49">
   <stop id="stop16" stop-color="#ED277B" offset="0"/>
   <stop id="stop18" stop-color="#EE2F7C" offset="0.0192"/>
   <stop id="stop20" stop-color="#F7BD81" offset="0.7039"/>
   <stop id="stop22" stop-color="#FEEB74" offset="1"/>
  </linearGradient>
  <linearGradient id="linearGradient4375" x1="730.07" gradientUnits="userSpaceOnUse" y1="878.36" gradientTransform="matrix(0.7071,0.7071,0.7071,-0.7071,-899.868,516.5412)" x2="704.64" y2="893.33">
   <stop id="stop25" stop-color="#89CFBD" offset="0"/>
   <stop id="stop27" stop-color="#7DBEBB" offset="0.0907"/>
   <stop id="stop29" stop-color="#457CAC" offset="0.5396"/>
   <stop id="stop31" stop-color="#1C5AA2" offset="0.8523"/>
   <stop id="stop33" stop-color="#084D9F" offset="1"/>
  </linearGradient>
  <linearGradient id="linearGradient4377" x1="739.3" gradientUnits="userSpaceOnUse" y1="890.24" gradientTransform="matrix(0.7071,0.7071,0.7071,-0.7071,-899.868,516.5412)" x2="723.64" y2="869.61">
   <stop id="stop36" stop-color="#F04A2B" offset="0"/>
   <stop id="stop38" stop-color="#B54F6B" offset="0.4704"/>
   <stop id="stop40" stop-color="#8B5191" offset="0.8353"/>
   <stop id="stop42" stop-color="#7851A1" offset="1"/>
  </linearGradient>
 </defs>
 <metadata id="metadata7">
  <rdf:RDF>
   <cc:Work rdf:about="">
    <dc:format>image/svg+xml</dc:format>
    <dc:type rdf:resource="http://purl.org/dc/dcmitype/StillImage"/>
    <dc:title/>
   </cc:Work>
  </rdf:RDF>
 </metadata>
 <rect id="rect4223" stroke-dasharray="none" rx="12" ry="12" height="383" width="248" stroke="#000" stroke-miterlimit="4" y="1" x="1" stroke-width="2" fill="#000"/>
 <g id="g5399" fill="#FFF" transform="matrix(1.5175548,0,0,1.5175548,-10.819556,-204.57052)">
  <g id="g4245" font-size="40px" line-height="125%" font-weight="normal" style="word-spacing:0px;letter-spacing:0px;" transform="matrix(0.78028324,0,0,0.78028324,-40.138666,320.82744)" font-style="normal" font-family="Sans" fill="#FFF">
   <path id="path4247" d="m83.434,30.241,7.584,0,0,3.984-15.504,0,8.568-14.112-7.104,0,0-3.984,14.976,0-8.52,14.112"/>
   <path id="path4249" d="m104.84,31.081-6.48,0-1.248,3.144-4.992,0,6.96-18.096,5.136,0,6.816,18.096-5.016,0-1.176-3.144m-1.272-3.6-1.92-5.76-0.048,0-1.944,5.76,3.912,0"/>
   <path id="path4251" d="m112.5,34.225,0-18.096,7.2,0c2.032,0.000018,3.632,0.49602,4.8,1.488,1.184,0.97602,1.776,2.464,1.776,4.464-0.00002,4.096-2.136,6.144-6.408,6.144h-2.664v6h-4.71m4.704-14.304,0,4.512,0.792,0c0.44799,0.000009,0.78399,0.000009,1.008,0,0.23999-0.01599,0.53599-0.06399,0.888-0.144,0.36799-0.07999,0.63999-0.19199,0.816-0.336,0.17599-0.14399,0.32799-0.35999,0.456-0.648,0.14399-0.28799,0.21599-0.64799,0.216-1.08-0.00001-0.44799-0.064-0.81599-0.192-1.104-0.12801-0.30399-0.28001-0.53599-0.456-0.696-0.17601-0.15999-0.44001-0.27199-0.792-0.336-0.33601-0.07999-0.63201-0.12799-0.888-0.144-0.24001-0.01599-0.59201-0.02399-1.056-0.024h-0.792"/>
   <path id="path4253" d="m143.85,20.113,0,14.112-4.704,0,0-14.112-3.888,0,0-3.984,12.48,0,0,3.984-3.888,0"/>
   <path id="path4255" d="m154.15,23.113,6.792,0,0-6.984,4.704,0,0,18.096-4.704,0,0-7.416-6.792,0,0,7.416-4.704,0,0-18.096,4.704,0,0,6.984"/>
   <path id="path4257" d="m179,20.113-5.592,0,0,3.024,5.304,0,0,3.984-5.304,0,0,3.12,5.592,0,0,3.984-10.296,0,0-18.096,10.296,0,0,3.984"/>
   <path id="path4259" d="m203.11,16.561,0,5.64c-0.48001-0.63999-1.088-1.128-1.824-1.464-0.72001-0.35199-1.488-0.52799-2.304-0.528-1.424,0.000014-2.584,0.48001-3.48,1.44-0.896,0.96001-1.344,2.152-1.344,3.576,0,1.44,0.448,2.624,1.344,3.552,0.912,0.912,2.096,1.368,3.552,1.368,0.76799,0.000004,1.512-0.168,2.232-0.504,0.71999-0.352,1.328-0.824,1.824-1.416v5.64c-1.824,0.56-3.208,0.84-4.152,0.84-2.576-0.000001-4.84-0.888-6.792-2.664-1.936-1.744-2.904-4.024-2.904-6.84,0-2.592,0.888-4.8,2.664-6.624,0.896-0.91198,1.952-1.624,3.168-2.136,1.216-0.52798,2.456-0.79198,3.72-0.792,1.392,0.000018,2.824,0.30402,4.296,0.912"/>
   <path id="path4261" d="m210.22,16.705c1.52-0.78398,3.152-1.176,4.896-1.176,1.744,0.000018,3.376,0.39202,4.896,1.176,1.52,0.76802,2.752,1.872,3.696,3.312,0.94398,1.44,1.416,3.048,1.416,4.824-0.00002,2.928-0.94401,5.328-2.832,7.2-1.872,1.856-4.264,2.784-7.176,2.784-2.912-0.000001-5.312-0.928-7.2-2.784-1.872-1.872-2.808-4.272-2.808-7.2,0-1.776,0.472-3.384,1.416-4.824s2.176-2.544,3.696-3.312m8.496,4.824c-1.008-0.95999-2.208-1.44-3.6-1.44-1.392,0.000014-2.592,0.48001-3.6,1.44-1.008,0.96001-1.512,2.072-1.512,3.336,0,1.536,0.496,2.824,1.488,3.864,0.992,1.024,2.2,1.536,3.624,1.536,1.424,0.000004,2.632-0.512,3.624-1.536,0.99199-1.04,1.488-2.328,1.488-3.864-0.00001-1.264-0.50401-2.376-1.512-3.336"/>
   <path id="path4263" d="m227.3,34.225,0-18.096,6.672,0c2.528,0.000018,4.688,0.88002,6.48,2.64,1.808,1.744,2.712,3.88,2.712,6.408-0.00001,2.528-0.90401,4.672-2.712,6.432-1.792,1.744-3.952,2.616-6.48,2.616h-6.67m4.704-14.112,0,10.128,1.056,0c1.504,0.000004,2.744-0.424,3.72-1.272,0.99199-0.84799,1.488-2.112,1.488-3.792-0.00001-1.584-0.47201-2.824-1.416-3.72-0.94401-0.89599-2.192-1.344-3.744-1.344h-1.104"/>
   <path id="path4265" d="m255.64,20.113-5.592,0,0,3.024,5.304,0,0,3.984-5.304,0,0,3.12,5.592,0,0,3.984-10.296,0,0-18.096,10.296,0,0,3.984"/>
  </g>
 </g>
 <g id="g4267" transform="matrix(1.5320094,0,0,1.5320094,-134.38643,-1218.4425)">
  <path id="path4269" d="m170.11,1036.5c0,1.1291-0.91401,2.0442-2.0453,2.0442h-66.951c-1.1313,0-2.0481-0.9151-2.0481-2.0442v-16.297c0-1.1291,0.91738-2.0464,2.0481-2.0464h66.951c1.1318,0,2.0453,0.9173,2.0453,2.0464l0.00057,16.297z" stroke="#FFF" stroke-miterlimit="3.86369990999999979" stroke-dasharray="none" stroke-width="0.50000000000000000" fill="#13110c"/>
  <path id="path4271" d="m127.23,1034.5h-1.2116l-0.66418-2.0852h-2.3069l-0.63218,2.0852h-1.1801l2.2862-7.1005h1.412l2.2968,7.1005zm-2.0762-2.9605-0.60017-1.8544c-0.0629-0.1897-0.18303-0.6361-0.3582-1.3379h-0.0213c-0.0702,0.3015-0.18303,0.7473-0.33743,1.3379l-0.59006,1.8544h1.9072z" fill="#FFF"/>
  <path id="path4273" d="m133.1,1031.9c0,0.8713-0.23636,1.5597-0.71021,2.0649-0.42389,0.4498-0.94995,0.6738-1.5788,0.6738-0.67821,0-1.1661-0.242-1.462-0.7265v2.6876h-1.141v-5.5128c0-0.5474-0.0135-1.1088-0.0421-1.6837h1.0005l0.0634,0.8118h0.0213c0.37954-0.6119,0.95501-0.9179,1.7275-0.9179,0.60467,0,1.1088,0.2391,1.5114,0.7164,0.40368,0.4789,0.60635,1.1071,0.60635,1.8864zm-1.1594,0.042c0-0.498-0.11173-0.909-0.33742-1.2335-0.24591-0.3368-0.5766-0.5047-0.9915-0.5047-0.27959,0-0.53504,0.094-0.76299,0.279-0.22794,0.187-0.37728,0.4306-0.44746,0.7327-0.0348,0.1415-0.0528,0.2549-0.0528,0.3464v0.8539c0,0.3717,0.11398,0.6856,0.34192,0.9433,0.22794,0.2565,0.52494,0.3845,0.89043,0.3845,0.42838,0,0.76131-0.1656,1.0005-0.4951,0.23973-0.3296,0.35932-0.7658,0.35932-1.3065z" fill="#FFF"/>
  <path id="path4275" d="m138.99,1031.9c0,0.8713-0.23693,1.5597-0.70966,2.0649-0.42444,0.4498-0.95051,0.6738-1.5788,0.6738-0.67765,0-1.1661-0.242-1.462-0.7265v2.6876h-1.1375v-5.5128c0-0.5474-0.014-1.1088-0.0415-1.6837h0.99991l0.0635,0.8118h0.0219c0.37785-0.6119,0.95332-0.9179,1.727-0.9179,0.60354,0,1.1088,0.2391,1.5119,0.7164,0.40255,0.4789,0.60523,1.1071,0.60523,1.8864zm-1.1594,0.042c0-0.498-0.11284-0.909-0.33742-1.2335-0.24591-0.3368-0.57603-0.5047-0.99037-0.5047-0.28072,0-0.53561,0.094-0.76411,0.279-0.22795,0.187-0.37616,0.4306-0.44747,0.7327-0.0348,0.1415-0.0533,0.2549-0.0533,0.3464v0.8539c0,0.3717,0.11453,0.6856,0.34247,0.9433,0.22907,0.2554,0.52438,0.3845,0.89044,0.3845,0.4295,0,0.76243-0.1656,0.99991-0.4951,0.23974-0.3296,0.35988-0.7658,0.35988-1.3065z" fill="#FFF"/>
  <path id="path4277" d="m145.57,1032.5c0,0.6041-0.2111,1.0965-0.63105,1.4754-0.4615,0.4133-1.1077,0.621-1.9336,0.621-0.76411,0-1.3766-0.1482-1.8398-0.443l0.26388-0.9482c0.49855,0.2953,1.0471,0.4429,1.6439,0.4429,0.42893,0,0.76243-0.096,1.0005-0.2897,0.23917-0.1925,0.35819-0.4508,0.35819-0.7742,0-0.288-0.0988-0.5294-0.29419-0.7265-0.19706-0.1971-0.52326-0.3795-0.97971-0.5474-1.2436-0.4632-1.8656-1.1419-1.8656-2.0352,0-0.5816,0.22008-1.0589,0.65856-1.4317,0.43848-0.3727,1.0196-0.5586,1.7444-0.5586,0.64509,0,1.1835,0.1123,1.6108,0.3374l-0.28521,0.927c-0.40255-0.2179-0.85675-0.3268-1.3643-0.3268-0.40199,0-0.71639,0.099-0.94209,0.2953-0.18976,0.1752-0.28521,0.3891-0.28521,0.6434,0,0.2796,0.10948,0.5132,0.3262,0.6951,0.18976,0.1679,0.53336,0.3503,1.033,0.5474,0.61084,0.2459,1.06,0.5339,1.3474,0.8635,0.28914,0.3301,0.43399,0.7416,0.43399,1.2329z" fill="#FFF"/>
  <path id="path4279" d="m149.35,1030.2h-1.2542v2.4866c0,0.6322,0.22176,0.9477,0.66305,0.9477,0.2038,0,0.37223-0.017,0.50586-0.052l0.032,0.8629c-0.22458,0.083-0.51989,0.1263-0.88539,0.1263-0.44858,0-0.80004-0.1381-1.0532-0.4115-0.25264-0.2734-0.37953-0.7338-0.37953-1.38v-2.5815h-0.74615v-0.8534h0.74615v-0.9387l1.1173-0.3369v1.2751h1.2542v0.8556z" fill="#FFF"/>
  <path id="path4281" d="m154.99,1031.9c0,0.7861-0.22402,1.4323-0.67429,1.9376-0.46992,0.521-1.0948,0.7798-1.8746,0.7798-0.75288,0-1.3502-0.2487-1.796-0.7467-0.4469-0.4991-0.66979-1.1279-0.66979-1.8853,0-0.7939,0.23019-1.4435,0.69-1.9493,0.46038-0.5048,1.0802-0.7585,1.86-0.7585,0.7512,0,1.3542,0.2504,1.8118,0.7484,0.43567,0.4834,0.65295,1.1077,0.65295,1.874zm-1.179,0.026c0-0.4688-0.10274-0.8714-0.30486-1.2077-0.23917-0.4059-0.58052-0.6103-1.0224-0.6103-0.45589,0-0.80566,0.2044-1.0426,0.6103-0.20436,0.3369-0.30598,0.7462-0.30598,1.2284,0,0.47,0.10162,0.8736,0.30598,1.2088,0.24591,0.4076,0.58895,0.6109,1.0336,0.6109,0.43455,0,0.7759-0.2083,1.0229-0.621,0.20829-0.3447,0.31328-0.7495,0.31328-1.2194z" fill="#FFF"/>
  <path id="path4283" d="m158.69,1030.4c-0.11285-0.021-0.23299-0.031-0.35932-0.031-0.39918,0-0.70965,0.1493-0.92636,0.4525-0.19033,0.2672-0.28409,0.6041-0.28409,1.0117v2.6865h-1.1375v-3.5084c0-0.5896-0.0112-1.1268-0.0337-1.6114h0.99093l0.0421,0.9792h0.032c0.12015-0.3369,0.30935-0.6075,0.56817-0.8102,0.25321-0.1836,0.52719-0.2751,0.82306-0.2751,0.10499,0,0.19931,0.01,0.28409,0.021l0.00056,1.0853z" fill="#FFF"/>
  <path id="path4285" d="m163.77,1031.7c0,0.2038-0.0124,0.3762-0.041,0.516h-3.4124c0.0118,0.5058,0.17797,0.8932,0.49518,1.1599,0.2869,0.2386,0.65857,0.3576,1.1161,0.3576,0.50473,0,0.96622-0.08,1.38-0.2419l0.17854,0.7893c-0.48508,0.2106-1.0566,0.3161-1.7169,0.3161-0.79499,0-1.4171-0.2341-1.8707-0.7001-0.45252-0.4665-0.67878-1.0942-0.67878-1.8797,0-0.7719,0.20886-1.4153,0.63162-1.9279,0.44297-0.5486,1.0398-0.8225,1.7904-0.8225,0.73773,0,1.2969,0.2739,1.6759,0.8225,0.30205,0.434,0.45195,0.9724,0.45195,1.6107zm-1.0841-0.2953c0.008-0.338-0.0668-0.6282-0.2212-0.8753-0.19707-0.3166-0.5008-0.4744-0.90616-0.4744-0.37167,0-0.67428,0.1539-0.90559,0.4638-0.18921,0.2459-0.30093,0.5423-0.3363,0.8848h2.3692z" fill="#FFF"/>
  <path id="path4287" d="m124.77,1023c0,0.626-0.18864,1.0987-0.56424,1.4153-0.34922,0.2926-0.8444,0.4396-1.4856,0.4396-0.31777,0-0.58951-0.014-0.81801-0.042v-3.427c0.297-0.047,0.61758-0.072,0.96342-0.072,0.61084,0,1.0718,0.1325,1.3817,0.397,0.34809,0.3009,0.5227,0.7304,0.5227,1.2885zm-0.59007,0.016c0-0.4071-0.10723-0.7181-0.32339-0.9348-0.21559-0.2173-0.52999-0.3256-0.94489-0.3256-0.17573,0-0.3262,0.012-0.45083,0.036v2.6034c0.069,0.012,0.19537,0.016,0.3784,0.016,0.42725,0,0.7585-0.119,0.99094-0.3571,0.23243-0.2363,0.34977-0.5839,0.34977-1.0375z" fill="#FFF"/>
  <path id="path4289" d="m127.74,1023.6c0,0.3868-0.11004,0.704-0.33237,0.9522-0.23131,0.2554-0.53786,0.3834-0.92132,0.3834-0.36886,0-0.66305-0.1224-0.88201-0.3677-0.21952-0.2448-0.32788-0.5536-0.32788-0.9264,0-0.3891,0.11173-0.7091,0.33911-0.9572,0.2257-0.2471,0.52999-0.3717,0.91289-0.3717,0.36943,0,0.66643,0.1224,0.891,0.3666,0.21334,0.2369,0.32058,0.5452,0.32058,0.9208zm-0.58052,0.013c0-0.2296-0.05-0.4284-0.14935-0.594-0.1179-0.1988-0.28521-0.2981-0.50248-0.2981-0.22401,0-0.39525,0.099-0.51259,0.2981-0.1005,0.1656-0.1499,0.3672-0.1499,0.6041,0,0.2313,0.0494,0.4289,0.1499,0.594,0.12127,0.1987,0.29026,0.2992,0.50754,0.2992,0.2139,0,0.38065-0.1016,0.50136-0.3037,0.10442-0.1696,0.15552-0.3689,0.15552-0.5996z" fill="#FFF"/>
  <path id="path4291" d="m131.77,1022.3-0.78657,2.5147h-0.51203l-0.32619-1.092c-0.0831-0.2723-0.1499-0.5435-0.20212-0.8119h-0.0107c-0.0483,0.2763-0.11566,0.5469-0.20212,0.8119l-0.34641,1.092h-0.51764l-0.73997-2.5147h0.57435l0.28408,1.1964c0.0696,0.2824,0.12633,0.5513,0.1718,0.8068h0.0101c0.0415-0.2105,0.11004-0.4783,0.20773-0.8017l0.35651-1.2009h0.45589l0.34247,1.1745c0.0825,0.2874,0.1499,0.5631,0.20156,0.8292h0.0152c0.0376-0.2588,0.0949-0.535,0.17068-0.8292l0.30486-1.1745,0.54852-0.0006z" fill="#FFF"/>
  <path id="path4293" d="m134.51,1024.9h-0.55976v-1.4445c0-0.4452-0.16843-0.6676-0.50641-0.6676-0.16618,0-0.29924,0.062-0.40423,0.1842-0.10387,0.1224-0.1544,0.2667-0.1544,0.4323v1.4956h-0.55975v-1.796c0-0.2218-0.007-0.4604-0.0202-0.7197h0.49182l0.0258,0.3879h0.0157c0.0646-0.1201,0.1617-0.2201,0.2897-0.2992,0.15215-0.093,0.32058-0.1404,0.50642-0.1404,0.23524,0,0.43118,0.076,0.58557,0.2285,0.19314,0.1858,0.29027,0.4638,0.29027,0.8326v1.5063z" fill="#FFF"/>
  <rect id="rect4295" height="3.6684" width="0.55863" y="1021.2" x="135.33" fill="#FFF"/>
  <path id="path4297" d="m139.01,1023.6c0,0.3868-0.10948,0.704-0.33125,0.9522-0.23187,0.2554-0.53785,0.3834-0.92075,0.3834-0.36886,0-0.66418-0.1224-0.8837-0.3677-0.21896-0.2448-0.32844-0.5536-0.32844-0.9264,0-0.3891,0.11285-0.7091,0.33911-0.9572,0.22569-0.2471,0.52943-0.3717,0.91401-0.3717,0.36887,0,0.6653,0.1224,0.88932,0.3666,0.21446,0.2369,0.3217,0.5452,0.3217,0.9208zm-0.57884,0.013c0-0.2296-0.0505-0.4284-0.15047-0.594-0.11734-0.1988-0.28464-0.2981-0.50248-0.2981-0.22457,0-0.39357,0.099-0.51259,0.2981-0.0999,0.1656-0.14934,0.3672-0.14934,0.6041,0,0.2313,0.0494,0.4289,0.14934,0.594,0.12183,0.1987,0.2897,0.2992,0.50698,0.2992,0.2139,0,0.38177-0.1016,0.50192-0.3037,0.10443-0.1696,0.15664-0.3689,0.15664-0.5996z" fill="#FFF"/>
  <path id="path4299" d="m141.57,1024.9h-0.50249l-0.0404-0.2897h-0.0157c-0.17348,0.2313-0.41771,0.347-0.73492,0.347-0.23917,0-0.43006-0.076-0.57547-0.2274-0.13025-0.1381-0.19538-0.3093-0.19538-0.512,0-0.3082,0.12857-0.5418,0.38515-0.7041,0.25657-0.1622,0.6187-0.2425,1.0847-0.238v-0.048c0-0.3307-0.17405-0.4963-0.52326-0.4963-0.24871,0-0.46711,0.062-0.65519,0.1858l-0.11566-0.3666c0.23468-0.1449,0.52214-0.2173,0.86517-0.2173,0.658,0,0.98869,0.3464,0.98869,1.0404v0.9263c-0.003,0.2515,0.0107,0.4514,0.0348,0.5996zm-0.57996-0.864v-0.388c-0.61814-0.011-0.92581,0.1584-0.92581,0.5076,0,0.1308,0.0359,0.229,0.10723,0.2947,0.0724,0.065,0.16394,0.098,0.2723,0.098,0.12464,0,0.23805-0.038,0.34247-0.1162,0.10555-0.078,0.16956-0.1763,0.19426-0.297l0.01-0.099z" fill="#FFF"/>
  <path id="path4301" d="m144.58,1024.9h-0.49799l-0.0258-0.4053h-0.0152c-0.15833,0.3077-0.42782,0.4621-0.80735,0.4621-0.30373,0-0.55469-0.1196-0.75569-0.3577-0.20099-0.238-0.2998-0.5468-0.2998-0.9264,0-0.407,0.10779-0.7366,0.32675-0.9886,0.21166-0.2347,0.47273-0.3521,0.78096-0.3521,0.34135,0,0.57827,0.1135,0.71358,0.3414v-1.444h0.55919v2.9919c0,0.2453,0.007,0.471,0.0213,0.6787zm-0.58052-1.0616v-0.4194c0-0.073-0.004-0.1308-0.014-0.1757-0.032-0.1342-0.0999-0.2471-0.2038-0.3392-0.10386-0.091-0.22794-0.1369-0.37335-0.1369-0.20885,0-0.37055,0.083-0.49069,0.2492-0.12071,0.1657-0.17966,0.3779-0.17966,0.6367,0,0.2482,0.0567,0.4497,0.17067,0.6052,0.12239,0.1651,0.28409,0.2482,0.48901,0.2482,0.18303,0,0.33181-0.069,0.44073-0.2066,0.10779-0.1292,0.16113-0.2819,0.16113-0.4615z" fill="#FFF"/>
  <path id="path4303" d="m149.04,1023.6c0,0.3868-0.1106,0.704-0.33237,0.9522-0.23075,0.2554-0.53842,0.3834-0.92019,0.3834-0.37055,0-0.66474-0.1224-0.88314-0.3677-0.21896-0.2448-0.32844-0.5536-0.32844-0.9264,0-0.3891,0.11285-0.7091,0.33911-0.9572,0.22513-0.2471,0.53055-0.3717,0.91289-0.3717,0.36999,0,0.66642,0.1224,0.89044,0.3666,0.21446,0.2369,0.3217,0.5452,0.3217,0.9208zm-0.5794,0.013c0-0.2296-0.0505-0.4284-0.15103-0.594-0.11678-0.1988-0.28408-0.2981-0.5008-0.2981-0.22513,0-0.39525,0.099-0.51259,0.2981-0.0999,0.1656-0.1499,0.3672-0.1499,0.6041,0,0.2313,0.05,0.4289,0.1499,0.594,0.12183,0.1987,0.2897,0.2992,0.50754,0.2992,0.21278,0,0.38009-0.1016,0.50024-0.3037,0.10442-0.1696,0.15664-0.3689,0.15664-0.5996z" fill="#FFF"/>
  <path id="path4305" d="m151.89,1024.9h-0.55863v-1.4445c0-0.4452-0.16899-0.6676-0.50698-0.6676-0.16618,0-0.2998,0.062-0.40367,0.1842-0.10442,0.1224-0.15439,0.2667-0.15439,0.4323v1.4956h-0.56031v-1.796c0-0.2218-0.006-0.4604-0.0197-0.7197h0.49069l0.0264,0.3879h0.0152c0.0662-0.1201,0.16337-0.2201,0.2897-0.2992,0.15271-0.093,0.32114-0.1404,0.50753-0.1404,0.23468,0,0.43062,0.076,0.58502,0.2285,0.19426,0.1858,0.2897,0.4638,0.2897,0.8326v1.5063z" fill="#FFF"/>
  <path id="path4307" d="m155.34,1022.8h-0.6159v1.2222c0,0.3105,0.10836,0.4649,0.32563,0.4649,0.1005,0,0.18191-0.01,0.24872-0.025l0.0152,0.4245c-0.11061,0.042-0.25489,0.062-0.43399,0.062-0.22121,0-0.39469-0.068-0.51877-0.2016-0.12407-0.1347-0.18639-0.361-0.18639-0.6787v-1.3h-0.36662v-0.4183h0.36662v-0.4615l0.54964-0.1651v0.6255h0.61533l0.00057,0.4194z" fill="#FFF"/>
  <path id="path4309" d="m158.13,1024.9h-0.55975v-1.4339c0-0.4525-0.16899-0.6787-0.50641-0.6787-0.25939,0-0.43624,0.1313-0.53449,0.3941-0.0152,0.056-0.0258,0.1218-0.0258,0.201v1.5164h-0.55862v-3.6684h0.55862v1.5108h0.0118c0.17573-0.2728,0.42894-0.4087,0.7557-0.4087,0.23187,0,0.42276,0.076,0.57434,0.2274,0.18977,0.1897,0.28521,0.4716,0.28521,0.8438v1.4962z" fill="#FFF"/>
  <path id="path4311" d="m161.02,1023.5c0,0.1005-0.008,0.1842-0.0208,0.2532h-1.6776c0.009,0.2487,0.0876,0.4379,0.24366,0.5693,0.14205,0.1179,0.32395,0.1763,0.54853,0.1763,0.24927,0,0.47497-0.039,0.67765-0.1196l0.0881,0.3891c-0.23805,0.1033-0.51989,0.1544-0.8444,0.1544-0.38851,0-0.69561-0.1145-0.91738-0.3436-0.22345-0.2296-0.33462-0.5373-0.33462-0.9241,0-0.379,0.10331-0.6951,0.3116-0.9477,0.21559-0.269,0.50866-0.4031,0.87809-0.4031,0.36212,0,0.63722,0.1341,0.8225,0.4031,0.1499,0.2139,0.22457,0.4789,0.22457,0.7927zm-0.5328-0.1448c0.004-0.1657-0.0337-0.3088-0.10836-0.4301-0.0982-0.1544-0.24478-0.2324-0.44521-0.2324-0.18247,0-0.33181,0.076-0.44522,0.2268-0.0926,0.1218-0.14766,0.2667-0.16675,0.4351h1.1655z" fill="#FFF"/>
  <path id="path4313" d="m114.67,1028.2c-0.0152-1.7202,1.4086-2.5573,1.4738-2.5955-0.80678-1.1757-2.056-1.3362-2.4956-1.3486-1.0493-0.11-2.0678,0.6277-2.6017,0.6277-0.54627,0-1.3688-0.6176-2.2564-0.599-1.142,0.017-2.2109,0.6787-2.796,1.7062-1.2093,2.0924-0.30767,5.1691,0.85114,6.8601,0.5794,0.8298,1.2565,1.7545,2.1424,1.7225,0.86742-0.036,1.1914-0.5524,2.2373-0.5524,1.037,0,1.3413,0.5524,2.2452,0.5305,0.92974-0.014,1.5159-0.832,2.0756-1.6691,0.66923-0.9477,0.93816-1.8842,0.94827-1.9331-0.0208-0.01-1.8056-0.6877-1.8241-2.7493z" fill="#FFF"/>
  <path id="path4315" d="m112.96,1023.2c0.46599-0.5834,0.78545-1.3772,0.69618-2.1823-0.67428,0.03-1.5187,0.4671-2.0049,1.0381-0.43006,0.5024-0.81352,1.3255-0.71471,2.1009,0.7585,0.057,1.5361-0.3829,2.0234-0.9567z" fill="#FFF"/>
 </g>
 <g id="g4317" transform="matrix(0.54353549,0,0,0.54353549,17.198639,141.1501)">
  <path id="path4319" d="m391.34,417.67c0,5.119-3.761,8.301-8.875,8.301h-150.36c-5.116,0-9.266-4.151-9.266-9.271v-39.159c0-5.118,4.149-9.268,9.266-9.268h150.35c5.114,0,8.875,4.15,8.875,9.268v40.129z" stroke="#FFF" stroke-miterlimit="10" stroke-width="1.17579996999999992" fill="#010101"/>
  <path id="path4321" d="m391.34,417.67c0,5.119-3.761,8.301-8.875,8.301h-150.36c-5.116,0-9.266-4.151-9.266-9.271v-39.159c0-5.118,4.149-9.268,9.266-9.268h150.35c5.114,0,8.875,4.15,8.875,9.268v40.129z" stroke="#FFF" stroke-miterlimit="10" stroke-width="1.17579996999999992" fill="#010101"/>
  <g id="g4323" fill="#FFF">
   <path id="path4325" d="m337.99,409.69-1.267,1.193c-0.291,0.159-0.582,0.348-0.873,0.479-0.878,0.399-1.771,0.499-2.564,0.499-0.847,0-2.17-0.055-3.521-1.032-1.879-1.322-2.698-3.594-2.698-5.576,0-4.102,3.34-6.112,6.062-6.112,0.952,0,1.929,0.239,2.724,0.741,1.322,0.873,1.664,2.01,1.854,2.618l-6.219,2.513-2.038,0.158c0.66,3.361,2.936,5.316,5.449,5.316,1.256,0,2.188-0.408,3.043-0.831-0.001,0.001,0.171-0.088,0.048,0.034zm-3.752-6.688c0.505-0.184,0.768-0.343,0.768-0.711,0-1.057-1.195-2.275-2.621-2.275-1.057,0-3.041,0.822-3.041,3.681,0,0.444,0.053,0.92,0.08,1.396l4.814-2.091z"/>
   <path id="path4327" d="m324.99,409.49c0,1.028,0.184,1.188,1.053,1.27,0.453,0.053,0.905,0.076,1.354,0.131l-0.979,0.581h-4.66c0.611-0.792,0.715-0.871,0.715-1.398v-0.593l-0.01-15.726h-2.05l1.98-0.955h3.782c-0.819,0.475-1.065,0.763-1.171,1.688l-0.005,15.002z"/>
   <path id="path4329" d="m317.76,400.44c0.606,0.5,1.874,1.559,1.874,3.568,0,1.958-1.104,2.882-2.218,3.757-0.342,0.344-0.741,0.718-0.741,1.296,0,0.584,0.399,0.9,0.688,1.139l0.957,0.736c1.159,0.98,2.22,1.881,2.22,3.706,0,2.488-2.407,4.996-6.958,4.996-3.834,0-5.687-1.823-5.687-3.78,0-0.954,0.474-2.303,2.038-3.228,1.641-1.002,3.862-1.137,5.053-1.214-0.372-0.48-0.796-0.983-0.796-1.802,0-0.449,0.136-0.717,0.265-1.032-0.289,0.028-0.58,0.058-0.846,0.058-2.806,0-4.394-2.096-4.394-4.155,0-1.218,0.557-2.566,1.695-3.545,1.508-1.242,3.307-1.457,4.733-1.457h5.451l-1.692,0.957h-1.642zm-1.875,11.744c-0.217-0.027-0.348-0.027-0.608-0.027-0.239,0-1.668,0.053-2.775,0.424-0.584,0.215-2.277,0.846-2.277,2.725,0,1.875,1.827,3.229,4.653,3.229,2.54,0,3.889-1.218,3.889-2.856-0.002-1.352-0.874-2.065-2.882-3.495zm0.76-5.027c0.613-0.611,0.665-1.453,0.665-1.933,0-1.901-1.134-4.865-3.333-4.865-0.686,0-1.429,0.344-1.852,0.876-0.445,0.552-0.579,1.267-0.579,1.953,0,1.771,1.032,4.71,3.304,4.71,0.664,0,1.377-0.323,1.795-0.741z"/>
   <path id="path4331" d="m301.36,411.81c-4.205,0-6.454-3.274-6.454-6.238,0-3.464,2.828-6.429,6.85-6.429,3.888,0,6.324,3.044,6.324,6.241,0,3.121-2.407,6.426-6.72,6.426zm3.308-2.141c0.64-0.846,0.794-1.902,0.794-2.933,0-2.329-1.11-6.772-4.391-6.772-0.872,0-1.75,0.341-2.383,0.898-1.035,0.925-1.218,2.087-1.218,3.229,0,2.613,1.292,6.924,4.499,6.924,1.034,0,2.089-0.5,2.699-1.346z"/>
   <path id="path4333" d="m287.28,411.81c-4.206,0-6.451-3.274-6.451-6.238,0-3.464,2.83-6.429,6.85-6.429,3.887,0,6.319,3.044,6.319,6.241,0,3.121-2.403,6.426-6.718,6.426zm3.309-2.141c0.634-0.846,0.793-1.902,0.793-2.933,0-2.329-1.113-6.772-4.391-6.772-0.875,0-1.745,0.341-2.379,0.898-1.036,0.925-1.218,2.087-1.218,3.229,0,2.613,1.296,6.924,4.497,6.924,1.034,0,2.088-0.5,2.698-1.346z"/>
   <path id="path4335" d="m279.15,410.89-3.547,0.812c-1.436,0.228-2.726,0.427-4.092,0.427-6.84,0-9.447-5.035-9.447-8.976,0-4.812,3.693-9.274,10.017-9.274,1.337,0,2.625,0.196,3.798,0.515,1.858,0.523,2.728,1.167,3.271,1.544l-2.061,1.958-0.869,0.192,0.619-0.986c-0.838-0.819-2.38-2.332-5.306-2.332-3.913,0-6.864,2.973-6.864,7.317,0,4.662,3.371,9.049,8.774,9.049,1.589,0,2.406-0.319,3.147-0.616v-3.998l-3.744,0.2,1.985-1.065h5.254l-0.644,0.619c-0.173,0.147-0.195,0.196-0.244,0.396-0.026,0.227-0.05,0.943-0.05,1.196v3.022h0.003z"/>
   <path id="path4337" d="m345.61,409.8v6.738h-1.338v-17.145h1.338v1.951c0.871-1.261,2.464-2.261,4.313-2.261,3.317,0,5.554,2.517,5.554,6.5,0,3.958-2.235,6.527-5.554,6.527-1.745,0.002-3.309-0.898-4.313-2.31zm8.43-4.215c0-3.003-1.565-5.293-4.342-5.293-1.724,0-3.371,1.354-4.088,2.535v5.488c0.717,1.183,2.364,2.588,4.088,2.588,2.777,0,4.342-2.31,4.342-5.318z"/>
   <path id="path4339" d="m357.31,411.81v-17.144h1.34v17.144h-1.34z"/>
   <path id="path4341" d="m373.66,415.43c0.285,0.128,0.773,0.207,1.083,0.207,0.817,0,1.389-0.336,1.899-1.518l0.978-2.211-5.271-12.514h1.492l4.522,10.845,4.478-10.845h1.514l-6.43,15.139c-0.666,1.561-1.716,2.311-3.158,2.311-0.433,0-1.002-0.078-1.337-0.18l0.23-1.234z"/>
   <path id="path4343" d="m369.75,411.77c-0.09-0.432-0.156-0.81-0.205-1.127-0.041-0.314-0.063-0.64-0.063-0.968-0.459,0.674-1.109,1.234-1.938,1.676-0.831,0.443-1.62,0.662-2.704,0.662-1.303,0-2.313-0.319-3.037-0.971-0.72-0.65-1.082-1.531-1.082-2.645s0.525-2.017,1.57-2.705c1.046-0.695,2.397-1.038,4.07-1.038h3.121v-1.544c0-0.89-0.304-1.586-0.908-2.094-0.606-0.507-1.458-0.762-2.562-0.762-1.01,0-1.828,0.233-2.45,0.689-0.617,0.466-0.929,1.042-0.929,1.737h-1.37l-0.026-0.066c-0.05-0.938,0.378-1.76,1.291-2.469,0.905-0.711,2.097-1.066,3.561-1.066,1.456,0,2.638,0.352,3.528,1.051,0.889,0.693,1.334,1.697,1.334,3.008v6.122c0,0.439,0.021,0.864,0.076,1.278,0.058,0.415,0.146,0.828,0.268,1.229l-1.545,0.003zm-4.748-0.974c1.137,0,1.953-0.254,2.789-0.757,0.828-0.499,1.394-1.149,1.689-1.938v-2.384h-3.136c-1.198,0-2.188,0.266-2.97,0.8-0.781,0.533-1.179,1.179-1.179,1.93,0,0.708,0.252,1.272,0.75,1.701,0.502,0.433,1.186,0.648,2.057,0.648z"/>
  </g>
  <g id="g4345" fill="#FFF">
   <path id="path4347" d="m262.12,380.6c0-2.634,1.958-4.329,4.392-4.329,1.631,0,2.698,0.778,3.362,1.731l-1.191,0.69c-0.452-0.626-1.243-1.116-2.171-1.116-1.656,0-2.886,1.255-2.886,3.023,0,1.745,1.23,3.024,2.886,3.024,0.853,0,1.605-0.389,1.982-0.751v-1.294h-2.509v-1.292h3.964v3.125c-0.815,0.916-1.995,1.531-3.438,1.531-2.433,0-4.391-1.719-4.391-4.342z"/>
   <path id="path4349" d="m271.76,384.78v-8.37h5.734v1.292h-4.266v2.158h4.178v1.292h-4.178v2.334h4.266v1.293l-5.734,0.001z"/>
   <path id="path4351" d="m281.56,384.78v-7.077h-2.534v-1.292h6.536v1.292h-2.534v7.077h-1.468z"/>
   <path id="path4353" d="m290.66,384.78v-8.37h1.468v8.37h-1.468z"/>
   <path id="path4355" d="m296.22,384.78v-7.077h-2.534v-1.292h6.536v1.292h-2.534v7.077h-1.468z"/>
   <path id="path4357" d="m304.96,380.6c0-2.497,1.769-4.329,4.279-4.329,2.496,0,4.277,1.832,4.277,4.329s-1.781,4.329-4.277,4.329c-2.51,0-4.279-1.832-4.279-4.329zm7.052,0c0-1.73-1.092-3.023-2.771-3.023-1.694,0-2.773,1.292-2.773,3.023,0,1.72,1.079,3.024,2.773,3.024,1.679,0,2.771-1.304,2.771-3.024z"/>
   <path id="path4359" d="m321.06,384.78-4.366-5.985v5.985h-1.467v-8.37h1.506l4.276,5.796v-5.796h1.47v8.37h-1.419z"/>
  </g>
  <polygon id="polygon4361" points="230.87,418.62,244.59,404.89,248.9,409.2,248.9,409.2,244.59,404.89,248.88,400.6,248.88,400.6,244.59,404.89,230.89,391.19,230.89,391.19,244.59,404.89,230.87,418.62" fill="none"/>
  <path id="path4363" d="m248.88,400.6-16.726-9.197c-0.473-0.259-0.912-0.319-1.265-0.21l13.7,13.699,4.291-4.292z" fill="url(#linearGradient4371)"/>
  <path id="path4365" d="m248.9,409.2,5.709-3.141c1.158-0.64,1.158-1.679,0-2.314l-5.73-3.15-4.292,4.292,4.313,4.313z" fill="url(#linearGradient4373)"/>
  <path id="path4367" d="m230.89,391.19c-0.508,0.159-0.838,0.675-0.838,1.454l0.003,24.522c0,0.77,0.32,1.277,0.813,1.446l13.73-13.72-13.7-13.7z" fill="url(#linearGradient4375)"/>
  <path id="path4369" d="m230.87,418.62c0.357,0.121,0.804,0.063,1.288-0.201l16.747-9.209-4.312-4.312-13.723,13.722z" fill="url(#linearGradient4377)"/>
 </g>
 <g id="g5388" transform="matrix(1.5160003,0,0,1.5160003,-182.4196,-199.33497)" fill="#FFF">
  <path id="path4227" d="m141.33,309.73,8.4648,0c-0.029,1.4217-0.15234,2.6258-0.36993,3.6122-0.20311,0.98647-0.63832,1.9439-1.3056,2.8724-1.5377,2.147-3.7936,3.2206-6.7675,3.2206-2.5822,0-4.6858-0.79789-6.3106-2.3937-1.6248-1.6103-2.4372-3.6993-2.4372-6.267,0-2.6548,0.81965-4.7873,2.4589-6.3976,1.6393-1.6248,3.7863-2.4372,6.4411-2.4372,1.7118,0.00002,3.1988,0.38445,4.4609,1.1533,1.2621,0.76889,2.2413,1.9149,2.9377,3.4382l-4.0475,1.6973c-0.30466-0.81239-0.76163-1.4507-1.3709-1.9149-0.6093-0.46422-1.3346-0.69633-2.176-0.69634-1.3201,0.00001-2.3646,0.52226-3.1335,1.5668-0.75437,1.0445-1.1316,2.2486-1.1316,3.6122,0,1.3637,0.38443,2.5605,1.1533,3.5905,0.78337,1.03,1.8424,1.545,3.177,1.545,0.95747,0,1.7481-0.24662,2.3719-0.73986,0.62379-0.49324,0.97923-1.1968,1.0663-2.1108h-3.4817v-3.3511"/>
  <path id="path4229" d="m161.09,306.1-5.0702,0,0,2.7418,4.8091,0,0,3.6122-4.8091,0,0,2.8289,5.0702,0,0,3.6122-9.3353,0,0-16.407,9.3353,0,0,3.6122"/>
  <path id="path4231" d="m170.26,306.1,0,12.795-4.2651,0,0-12.795-3.5252,0,0-3.6122,11.315,0,0,3.6122-3.5252,0"/>
  <path id="path4233" d="m188.84,315.28,6.8763,0,0,3.6122-14.057,0,7.7685-12.795-6.4411,0,0-3.6122,13.579,0-7.725,12.795"/>
  <path id="path4235" d="m208.25,316.05-5.8754,0-1.1316,2.8506-4.5262,0,6.3106-16.407,4.6568,0,6.18,16.407-4.548,0-1.0663-2.8506m-1.1533-3.2641-1.7408-5.2225-0.0435,0-1.7626,5.2225,3.547,0"/>
  <path id="path4237" d="m215.2,318.9,0-16.407,6.5282,0c1.8424,0.00002,3.2931,0.44974,4.3521,1.3492,1.0735,0.88494,1.6103,2.2341,1.6103,4.0475-0.00002,3.7138-1.9367,5.5707-5.8101,5.5707h-2.4154v5.4401h-4.2651m4.2651-12.969,0,4.091,0.71809,0c0.40619,0.00001,0.71084,0.00001,0.91395,0,0.21759-0.0145,0.48597-0.058,0.80514-0.13056,0.33365-0.0725,0.58027-0.17408,0.73986-0.30465,0.15956-0.13055,0.29738-0.3264,0.41345-0.58753,0.13055-0.26112,0.19583-0.58753,0.19584-0.97923-0.00001-0.40619-0.058-0.73985-0.17408-1.001-0.11607-0.27563-0.25389-0.48598-0.41345-0.63106-0.15959-0.14506-0.39896-0.24661-0.7181-0.30465-0.30466-0.0725-0.57304-0.11604-0.80514-0.13056-0.21762-0.0145-0.53677-0.0217-0.95747-0.0218h-0.71809"/>
  <path id="path4239" d="m229.6,318.9,0-16.407,6.5282,0c1.8424,0.00002,3.2931,0.44974,4.3521,1.3492,1.0735,0.88494,1.6103,2.2341,1.6103,4.0475-0.00001,3.7138-1.9367,5.5707-5.8101,5.5707h-2.4154v5.4401h-4.2651m4.2651-12.969,0,4.091,0.7181,0c0.4062,0.00001,0.71084,0.00001,0.91394,0,0.21761-0.0145,0.48599-0.058,0.80514-0.13056,0.33366-0.0725,0.58028-0.17408,0.73986-0.30465,0.15958-0.13055,0.29739-0.3264,0.41345-0.58753,0.13055-0.26112,0.19584-0.58753,0.19585-0.97923-0.00001-0.40619-0.058-0.73985-0.17409-1.001-0.11606-0.27563-0.25387-0.48598-0.41345-0.63106-0.15958-0.14506-0.39894-0.24661-0.7181-0.30465-0.30464-0.0725-0.57302-0.11604-0.80514-0.13056-0.2176-0.0145-0.53676-0.0217-0.95746-0.0218h-0.7181"/>
  <path id="path4241" d="m252.45,316.05-5.8754,0-1.1316,2.8506-4.5262,0,6.3106-16.407,4.6568,0,6.18,16.407-4.548,0-1.0663-2.8506m-1.1533-3.2641-1.7408-5.2225-0.0435,0-1.7626,5.2225,3.547,0"/>
  <path id="path4243" d="m267.89,312.17,5.1572,6.724-5.3096,0-4.0257-6.3106-0.0435,0,0,6.3106-4.2651,0,0-16.407,6.3758,0c1.7118,0.00002,3.09,0.42073,4.1345,1.2621,1.0445,0.84143,1.5668,2.1035,1.5668,3.7863-0.00001,1.1751-0.31916,2.1906-0.95746,3.0465-0.62382,0.85592-1.5015,1.3854-2.633,1.5885m-4.2216-6.4194,0,4.091,0.41345,0c1.973,0.00001,2.9594-0.68182,2.9594-2.0455-0.00001-1.3637-0.98648-2.0455-2.9594-2.0455h-0.41345"/>
 </g>
 <g id="g100" transform="matrix(3.1204831,0,0,3.1204831,125,119.21257)">
    <defs>
    <clipPath
       id="bits-clip">
      <path
         d="m 0,-31 c -17.120827,0 -31,13.879173 -31,31 0,17.120827 13.879173,31 31,31 C 17.120827,31 31,17.120827 31,0 31,-17.120827 17.120827,-31 0,-31 z m 0,8 c 12.702549,0 23,10.297451 23,23 0,12.702549 -10.297451,23 -23,23 -12.702549,0 -23,-10.297451 -23,-23 0,-12.702549 10.297451,-23 23,-23 z"
         style="fill:#000000;stroke:none" />
    </clipPath>
  </defs>
  <g>
     <circle cx="0" cy="0" r="33" fill="#ffffff"/>
    <path
       d="m 0,-34 c -18.777681,0 -34,15.222319 -34,34 0,18.777681 15.222319,34 34,34 C 18.777681,34 34,18.777681 34,0 34,-18.777681 18.777681,-34 0,-34 z m 0,2 c 17.673112,0 32,14.326888 32,32 0,17.673112 -14.326888,32 -32,32 -17.673112,0 -32,-14.326888 -32,-32 0,-17.673112 14.326888,-32 32,-32 z"
       id="circle-outline"
       style="fill:#000000" />
    <path
       d="m 0,-22 c -12.150264,0 -22,9.849736 -22,22 0,12.150264 9.849736,22 22,22 12.150264,0 22,-9.849736 22,-22 0,-12.150264 -9.849736,-22 -22,-22 z m -1.90625,3.34375 13.59375,16.625 L -0.40625,8.3125 7.375,18.65625 -11.34375,7.71875 l 8.5,-8.9375 -8.84375,-6.40625 9.78125,-11.03125 z"
       id="bolt-circle"
       style="fill:#000000;stroke:none" />
    <g
       clip-path="url(#bits-clip)"
       id="bits" style="fill:#000000">
<path class="paths" d="M 0,0 774.866529,198.951910,743.821189,294.499642 z" transform="translate(0.000000,0.000000)" /><path class="paths" d="M 0,0 600.088856,529.049492,529.049492,600.088856 z" transform="translate(0.000000,0.000000)" /><path class="paths" d="M 0,0 509.939192,616.410594,428.661436,675.462340 z" transform="translate(0.000000,0.000000)" /><path class="paths" d="M 0,0 407.233133,688.593622,317.718313,734.203701 z" transform="translate(0.000000,0.000000)" /><path class="paths" d="M 0,0 50.232416,798.421383,-50.232416,798.421383 z" transform="translate(0.000000,0.000000)" /><path class="paths" d="M 0,0 -75.286651,796.449572,-174.514593,780.733410 z" transform="translate(0.000000,0.000000)" /><path class="paths" d="M 0,0 -198.951910,774.866529,-294.499642,743.821189 z" transform="translate(0.000000,0.000000)" /><path class="paths" d="M 0,0 -428.661436,675.462340,-509.939192,616.410594 z" transform="translate(0.000000,0.000000)" /><path class="paths" d="M 0,0 -529.049492,600.088856,-600.088856,529.049492 z" transform="translate(0.000000,0.000000)" /><path class="paths" d="M 0,0 -616.410594,509.939192,-675.462340,428.661436 z" transform="translate(0.000000,0.000000)" /><path class="paths" d="M 0,0 -743.821189,294.499642,-774.866529,198.951910 z" transform="translate(0.000000,0.000000)" /><path class="paths" d="M 0,0 -675.462340,-428.661436,-616.410594,-509.939192 z" transform="translate(0.000000,0.000000)" /><path class="paths" d="M 0,0 -407.233133,-688.593622,-317.718313,-734.203701 z" transform="translate(0.000000,0.000000)" /><path class="paths" d="M 0,0 198.951910,-774.866529,294.499642,-743.821189 z" transform="translate(0.000000,0.000000)" /><path class="paths" d="M 0,0 428.661436,-675.462340,509.939192,-616.410594 z" transform="translate(0.000000,0.000000)" /><path class="paths" d="M 0,0 616.410594,-509.939192,675.462340,-428.661436 z" transform="translate(0.000000,0.000000)" /><path class="paths" d="M 0,0 688.593622,-407.233133,734.203701,-317.718313 z" transform="translate(0.000000,0.000000)" /><path class="paths" d="M 0,0 780.733410,-174.514593,796.449572,-75.286651 z" transform="translate(0.000000,0.000000)" />
    </g>
  </g>

 </g>
</svg>
